PathFileType	3	(X/Y/Z)	E:\ViconData\BIOM9541 2025\Week 7\Mon0900\MingceV2 Cal 01.trc
DataRate	CameraRate	NumFrames	NumMarkers	Units	OrigDataRate	OrigDataStartFrame	OrigNumFrames
200.0	200.0	6	19	mm	200.0	69	273	
Frame#	Time	C7			CLAV			RBAK			LASI			RASI			LPSI			RPSI			LTHI			LKNE			LTIB			LANK			LHEE			LTOE			RTHI			RKNE			RTIB			RANK			RHEE			RTOE			
		X1	Y1	Z1	X2	Y2	Z2	X3	Y3	Z3	X4	Y4	Z4	X5	Y5	Z5	X6	Y6	Z6	X7	Y7	Z7	X8	Y8	Z8	X9	Y9	Z9	X10	Y10	Z10	X11	Y11	Z11	X12	Y12	Z12	X13	Y13	Z13	X14	Y14	Z14	X15	Y15	Z15	X16	Y16	Z16	X17	Y17	Z17	X18	Y18	Z18	X19	Y19	Z19	
69	0.34	240.73892	1431.5543	-1051.5643	244.6636	1381.8021	-910.50024	83.735359	1410.3524	-989.90063	336.34683	943.84729	-803.90314	108.5959	969.5766	-821.60889	268.36884	977.48956	-1019.181	199.2681	982.19629	-1017.9459	407.56708	669.37616	-871.46082	367.3645	471.10321	-912.60144	377.47092	262.6264	-992.39008	332.45126	79.54969	-957.81946	277.4382	45.007557	-1004.9831	323.13162	43.468052	-819.51447	47.516914	704.81726	-881.99408	95.591988	473.82288	-939.76831	79.548256	367.73636	-1010.3354	125.60119	78.765144	-986.53296	188.03096	49.800507	-1017.1462	98.462601	42.977036	-849.2674
70	0.345	240.72903	1431.6587	-1051.5117	244.65334	1381.7863	-910.45813	83.723724	1410.3755	-989.84479	336.34158	943.82611	-803.91119	108.61778	969.54437	-821.62299	268.31119	977.60944	-1019.1953	199.23154	982.29175	-1017.9669	407.55383	669.33875	-871.46283	367.78073	471.49588	-912.2392	377.46652	262.61929	-992.38031	332.45425	79.564896	-957.75452	277.36743	45.096817	-1004.9866	323.13892	43.398415	-819.55292	47.458336	704.83887	-881.95276	94.991173	473.88388	-939.92523	79.492859	367.77005	-1010.3347	125.56792	78.827591	-986.52972	187.98488	49.874989	-1017.1108	98.431747	42.963722	-849.16736
71	0.35	240.70129	1431.7596	-1051.4573	244.62732	1381.7457	-910.43207	83.720863	1410.4031	-989.7677	336.33447	943.78003	-803.9472	108.6274	969.5061	-821.65759	268.29288	977.68793	-1019.218	199.19633	982.36499	-1017.998	407.61267	669.28528	-871.45734	367.26758	470.8035	-912.73273	377.44775	262.54132	-992.37769	332.46082	79.582703	-957.63458	277.33871	45.131439	-1004.9283	323.13412	43.348976	-819.5658	47.382153	704.86719	-881.91895	95.495392	473.88763	-939.71344	79.451569	367.78436	-1010.3016	125.55432	78.835464	-986.4718	187.98286	49.938683	-1017.1293	98.414978	42.946186	-849.10706
72	0.355	240.72388	1431.7407	-1051.379	244.61674	1381.7671	-910.41571	83.740715	1410.4246	-989.7146	336.34711	943.78613	-804.00739	108.62737	969.50983	-821.70282	268.30334	977.69232	-1019.215	199.2209	982.38202	-1018.0011	407.62289	669.25952	-871.50269	367.76511	471.40967	-912.31836	377.47247	262.52011	-992.38422	332.47809	79.526192	-957.70105	277.41605	45.061501	-1004.7841	323.14819	43.333351	-819.6236	47.344063	704.86987	-881.93884	95.449455	473.89798	-939.70648	79.401199	367.7616	-1010.3065	125.56075	78.823921	-986.43591	187.99707	49.912582	-1017.064	98.418953	42.941116	-849.11847
73	0.36	240.77904	1431.7692	-1051.2871	244.56798	1381.8379	-910.37531	83.771675	1410.4895	-989.64752	336.35538	943.82166	-804.09686	108.60948	969.55072	-821.77307	268.33197	977.68268	-1019.243	199.25098	982.36761	-1018.0346	407.60739	669.30219	-871.61951	367.34842	471.02747	-912.72467	377.52307	262.64362	-992.36743	332.52246	79.596657	-957.72852	277.45609	44.980373	-1004.7984	323.16916	43.351528	-819.69244	47.374279	704.88055	-881.98828	95.449432	473.87772	-939.70465	79.544884	367.77588	-1009.6816	125.6086	78.784218	-986.43457	188.01181	49.849609	-1017.0848	98.457581	42.966564	-849.203
74	0.365	240.82597	1431.8375	-1051.1843	244.56371	1381.9242	-910.30566	83.808701	1410.5364	-989.5885	336.36874	943.87195	-804.17145	108.59241	969.62305	-821.83655	268.3764	977.64081	-1019.2733	199.26941	982.35803	-1018.0605	407.62421	669.37244	-871.69733	367.36868	471.12946	-912.78864	377.52829	262.71051	-992.39441	332.54913	79.634712	-957.79688	277.47928	45.000732	-1004.9293	323.18057	43.431	-819.67853	47.365101	704.91034	-882.04858	95.459572	473.8541	-939.69647	79.460274	367.7272	-1010.1411	125.64184	78.789246	-986.5047	188.05928	49.818882	-1017.1249	98.48407	42.999496	-849.29956
